<?xml version="1.0" encoding="utf-8"?>
<!-- Generator: Adobe Illustrator 25.0.1, SVG Export Plug-In . SVG Version: 6.00 Build 0)  -->
<svg version="1.1" id="Layer_1" xmlns="http://www.w3.org/2000/svg" xmlns:xlink="http://www.w3.org/1999/xlink" x="0px" y="0px"
	 viewBox="0 0 100 100" style="enable-background:new 0 0 100 100;" xml:space="preserve">
<path d="M89.23,18.49H11.46c-3.38,0-6.11-2.74-6.11-6.11v0c0-3.38,2.74-6.11,6.11-6.11h77.77c3.38,0,6.11,2.74,6.11,6.11v0
	C95.34,15.75,92.61,18.49,89.23,18.49z"/>
<path d="M89.23,54.94H11.46c-3.38,0-6.11-2.74-6.11-6.11v0c0-3.38,2.74-6.11,6.11-6.11h77.77c3.38,0,6.11,2.74,6.11,6.11v0
	C95.34,52.21,92.61,54.94,89.23,54.94z"/>
<path d="M89.23,89.57H11.46c-3.38,0-6.11-2.74-6.11-6.11v0c0-3.38,2.74-6.11,6.11-6.11h77.77c3.38,0,6.11,2.74,6.11,6.11v0
	C95.34,86.83,92.61,89.57,89.23,89.57z"/>
</svg>
